# 3ds Max Wavefront OBJ Exporter v0.97b - (c)2007 guruware
# File Created: 01.11.2017 17:13:30

mtllib room.mtl

#
# object Object012
#

v  -0.2200 3.2782 8.0000
v  -0.2200 1.7397 8.0000
v  -0.3525 1.8104 8.0000
v  -0.3513 3.2782 8.0000
v  -1.3606 2.3566 8.0000
v  -0.7014 3.4982 8.0000
v  -0.6726 3.4482 8.0000
v  -1.3173 2.3316 8.0000
v  -2.0197 1.2149 8.0000
v  -1.9620 1.2149 8.0000
v  -1.8120 0.9552 8.0000
v  -1.6690 0.6075 8.0000
v  -1.6512 0.6766 8.0000
v  -0.0500 1.6438 8.0000
v  -0.0000 1.6156 8.0000
v  -0.0500 3.4482 8.0000
v  -0.0000 3.4982 8.0000
v  -0.3513 3.4482 8.0000
v  -0.6610 3.4282 8.0500
v  -1.2999 2.3216 8.0500
v  -1.9389 1.2149 8.0500
v  -1.7952 0.9660 8.0500
v  -1.6441 0.7043 8.0500
v  -0.0700 1.6551 8.0500
v  -0.0700 3.4282 8.0500
v  -0.3513 3.4282 8.0500
v  -1.1960 2.2616 8.0500
v  -0.5917 3.3082 8.0500
v  -0.5744 3.2782 8.0000
v  -1.1700 2.2466 8.0000
v  -1.6921 1.0275 8.0500
v  -1.8003 1.2149 8.0500
v  -1.7657 1.2149 8.0000
v  -1.6669 1.0438 8.0000
v  -1.6013 0.8703 8.0500
v  -1.5906 0.9118 8.0000
v  -0.1900 1.7228 8.0500
v  -0.1900 3.3082 8.0500
v  -0.3513 3.3082 8.0500
v  -0.3701 1.8198 8.0000
v  -0.3713 3.2782 8.0000
v  -1.8020 0.9378 8.0000
v  -1.7852 0.9487 8.0500
v  -0.3713 3.4482 8.0000
v  -0.3713 3.4282 8.0500
v  -1.6821 1.0102 8.0500
v  -1.6569 1.0265 8.0000
v  -0.3713 3.3082 8.0500
v  -0.3513 3.2782 7.9688
v  -0.3525 1.8104 7.9688
v  -0.3701 1.8198 7.9688
v  -0.3713 3.2782 7.9688
v  -1.8120 0.9552 7.9688
v  -1.7436 0.9968 7.9688
v  -1.7336 0.9794 7.9688
v  -1.8020 0.9378 7.9688
v  -0.3513 3.4482 7.9688
v  -0.3513 3.3682 7.9688
v  -0.3713 3.3682 7.9688
v  -0.3713 3.4482 7.9688
v  -1.6669 1.0438 7.9688
v  -1.6569 1.0265 7.9688
# 62 vertices

vn -0.0000 0.0000 -1.0000
vn 0.8041 -0.4642 -0.3714
vn 0.8041 0.4642 -0.3714
vn -0.4800 0.7947 -0.3714
vn -0.9285 0.0000 -0.3714
vn -0.0000 -0.9285 -0.3714
vn -0.7426 0.4287 -0.5145
vn -0.7426 -0.4287 -0.5145
vn 0.4433 -0.7340 -0.5145
vn 0.8575 0.0000 -0.5145
vn -0.0000 0.8575 -0.5145
vn 0.0000 0.0000 -1.0000
vn 0.0010 0.0006 -1.0000
vn 0.0000 -0.0012 -1.0000
vn -0.0009 -0.0005 -1.0000
vn 0.0000 0.0010 -1.0000
vn 1.0000 -0.0008 0.0000
vn 1.0000 -0.0000 0.0000
vn 1.0000 0.0000 0.0000
vn 0.0000 1.0000 -0.0000
vn -1.0000 -0.0000 -0.0000
vn -1.0000 0.0000 -0.0000
vn -1.0000 -0.0008 -0.0000
vn -0.5135 0.8581 -0.0000
vn -0.5248 0.8512 0.0077
vn -0.5125 0.8587 -0.0000
vn -0.5218 0.8531 -0.0058
vn -0.8660 -0.5000 -0.0000
vn 0.5218 -0.8531 0.0058
vn 0.5125 -0.8587 -0.0000
vn 0.5248 -0.8512 -0.0077
vn 0.5151 -0.8571 -0.0000
# 32 vertex normals

vt 0.3156 0.3580 0.0000
vt 0.4081 0.3030 0.0000
vt 0.4086 0.3135 0.0000
vt 0.3203 0.3658 0.0000
vt 0.4117 0.3936 0.0000
vt 0.3196 0.3948 0.0000
vt 0.3215 0.3912 0.0000
vt 0.4117 0.3901 0.0000
vt 0.5039 0.3925 0.0000
vt 0.5018 0.3890 0.0000
vt 0.5121 0.3707 0.0000
vt 0.5279 0.3497 0.0000
vt 0.5231 0.3511 0.0000
vt 0.4078 0.2894 0.0000
vt 0.4077 0.2854 0.0000
vt 0.2993 0.3538 0.0000
vt 0.2945 0.3526 0.0000
vt 0.3101 0.3719 0.0000
vt 0.6850 0.7023 0.0000
vt 0.6400 0.7023 0.0000
vt 0.6391 0.6988 0.0000
vt 0.6838 0.6988 0.0000
vt 0.5010 0.3876 0.0000
vt 0.5108 0.3701 0.0000
vt 0.7080 0.7206 0.0000
vt 0.7100 0.7171 0.0000
vt 0.7765 0.7171 0.0000
vt 0.7757 0.7206 0.0000
vt 0.9004 0.7171 0.0000
vt 0.9018 0.7206 0.0000
vt 0.9288 0.7126 0.0000
vt 0.9077 0.7126 0.0000
vt 0.9091 0.7091 0.0000
vt 0.9288 0.7091 0.0000
vt 0.8616 0.6927 0.0000
vt 0.9348 0.6927 0.0000
vt 0.9327 0.6962 0.0000
vt 0.8605 0.6962 0.0000
vt 0.7753 0.6927 0.0000
vt 0.7884 0.6927 0.0000
vt 0.7884 0.6962 0.0000
vt 0.7764 0.6962 0.0000
vt 0.5097 0.3550 0.0000
vt 0.5068 0.3558 0.0000
vt 0.4080 0.3006 0.0000
vt 0.3127 0.3572 0.0000
vt 0.3185 0.3669 0.0000
vt 0.7285 0.6988 0.0000
vt 0.7301 0.7023 0.0000
vt 0.4115 0.3782 0.0000
vt 0.4086 0.3149 0.0000
vt 0.5016 0.3651 0.0000
vt 0.4948 0.3772 0.0000
vt 0.3282 0.3793 0.0000
vt 0.3210 0.3671 0.0000
vt 0.6090 0.8322 0.0000
vt 0.6097 0.8357 0.0000
vt 0.5926 0.8357 0.0000
vt 0.5907 0.8322 0.0000
vt 0.6189 0.7023 0.0000
vt 0.6189 0.6988 0.0000
vt 0.5041 0.3649 0.0000
vt 0.5023 0.3639 0.0000
vt 0.3192 0.3681 0.0000
vt 0.3271 0.3814 0.0000
vt 0.3153 0.1405 0.0000
vt 0.4035 0.0881 0.0000
vt 0.4036 0.0895 0.0000
vt 0.3160 0.1417 0.0000
vt 0.5071 0.1453 0.0000
vt 0.5021 0.1427 0.0000
vt 0.5028 0.1415 0.0000
vt 0.5077 0.1441 0.0000
vt 0.3050 0.1466 0.0000
vt 0.3098 0.1437 0.0000
vt 0.3106 0.1449 0.0000
vt 0.3057 0.1478 0.0000
vt 0.4966 0.1398 0.0000
vt 0.4972 0.1386 0.0000
vt 0.6700 0.8322 0.0000
vt 0.6700 0.8300 0.0000
vt 0.7726 0.8300 0.0000
vt 0.7726 0.8322 0.0000
vt 0.7789 0.8300 0.0000
vt 0.7747 0.8357 0.0000
vt 0.7831 0.8357 0.0000
vt 0.7845 0.8300 0.0000
vt 0.7845 0.8322 0.0000
vt 0.5925 0.7001 0.0000
vt 0.5946 0.7001 0.0000
vt 0.5946 0.7015 0.0000
vt 0.5925 0.7015 0.0000
vt 0.9446 0.6962 0.0000
vt 0.9446 0.6984 0.0000
vt 0.9390 0.6984 0.0000
vt 0.9432 0.6927 0.0000
vt 0.9327 0.6984 0.0000
vt 0.8307 0.6984 0.0000
vt 0.8307 0.6962 0.0000
vt 0.7764 0.6984 0.0000
vt 0.7732 0.6984 0.0000
vt 0.7710 0.6927 0.0000
vt 0.7702 0.6984 0.0000
vt 0.7702 0.6962 0.0000
vt 0.7690 0.6984 0.0000
vt 0.7690 0.6962 0.0000
vt 0.6090 0.8300 0.0000
vt 0.6119 0.8300 0.0000
vt 0.6140 0.8357 0.0000
vt 0.6152 0.8300 0.0000
vt 0.6152 0.8322 0.0000
vt 0.3108 0.3731 0.0000
vt 0.5128 0.3695 0.0000
vt 0.3113 0.3712 0.0000
vt 0.3012 0.3543 0.0000
vt 0.4078 0.2910 0.0000
vt 0.5212 0.3516 0.0000
vt 0.5115 0.3689 0.0000
vt 0.4961 0.3793 0.0000
vt 0.5035 0.3661 0.0000
vt 0.4117 0.3887 0.0000
vt 0.4116 0.3803 0.0000
vt 0.3223 0.3898 0.0000
vt 0.3120 0.3724 0.0000
# 124 texture coords

g Object012
usemtl Material__98
s 1
f 1/1/1 2/2/1 3/3/1 4/4/1 
s 4
f 5/5/1 6/6/1 7/7/1 8/8/1 
f 9/9/1 10/10/1 11/11/1 
f 12/12/1 13/13/1 14/14/1 15/15/1 
f 15/15/1 14/14/1 16/16/1 17/17/1 
f 17/17/1 16/16/1 18/18/1 
s 1
f 8/19/2 7/20/2 19/21/2 20/22/2 
s 2
f 11/11/3 10/10/3 21/23/3 22/24/3 
s 1
f 13/25/4 23/26/4 24/27/4 14/28/4 
s 2
f 14/28/5 24/27/5 25/29/5 16/30/5 
s 8
f 18/31/6 16/32/6 25/33/6 26/34/6 
s 2
f 27/35/7 28/36/7 29/37/7 30/38/7 
s 8
f 31/39/8 32/40/8 33/41/8 34/42/8 
s 2
f 35/43/9 36/44/9 2/2/9 37/45/9 
s 8
f 37/45/10 2/2/10 1/1/10 38/46/10 
s 16
f 39/47/11 38/46/11 1/1/11 4/4/11 
s 4
f 5/5/1 8/8/1 10/10/1 9/9/1 
s 1
f 8/19/2 20/22/2 21/48/2 10/49/2 
s 2
f 27/35/7 30/38/7 33/41/7 32/40/7 
s 1
f 30/50/1 40/51/1 34/52/1 33/53/1 
f 29/54/1 41/55/1 40/51/1 30/50/1 
s 2
f 42/56/3 43/57/3 23/58/3 13/59/3 
s 8
f 44/60/6 45/61/6 19/21/6 7/20/6 
f 46/62/8 47/63/8 36/44/8 35/43/8 
s 16
f 48/64/11 41/55/11 29/54/11 28/65/11 
s 1
f 36/44/1 47/63/1 3/3/1 2/2/1 
f 49/66/12 50/67/12 51/68/12 52/69/12 
s 2
f 53/70/13 54/71/13 55/72/13 56/73/13 
s 8
f 57/74/14 58/75/14 59/76/14 60/77/14 
f 54/71/15 61/78/15 62/79/15 55/72/15 
s 16
f 58/75/16 49/66/16 52/69/16 59/76/16 
s 1
f 61/78/12 51/68/12 50/67/12 62/79/12 
s off
f 3/80/17 50/81/17 49/82/17 4/83/17 
f 4/83/18 49/82/18 58/84/18 39/85/18 
f 39/85/18 58/84/18 26/86/18 
f 26/86/19 58/84/19 57/87/19 18/88/19 
f 18/89/20 57/90/20 60/91/20 44/92/20 
f 44/93/21 60/94/21 59/95/21 45/96/21 
f 45/96/22 59/95/22 48/36/22 
f 48/36/22 59/95/22 52/97/22 41/37/22 
f 41/37/23 52/97/23 51/98/23 40/99/23 
f 40/99/24 51/98/24 61/100/24 34/42/24 
f 34/42/25 61/100/25 54/101/25 31/39/25 
f 31/39/26 54/101/26 22/102/26 
f 22/102/27 54/101/27 53/103/27 11/104/27 
f 11/104/28 53/103/28 56/105/28 42/106/28 
f 42/56/29 56/107/29 55/108/29 43/57/29 
f 43/57/30 55/108/30 46/109/30 
f 46/109/31 55/108/31 62/110/31 47/111/31 
f 47/111/32 62/110/32 50/81/32 3/80/32 
s 4
f 6/6/1 44/112/1 7/7/1 
f 17/17/1 18/18/1 44/112/1 6/6/1 
f 12/12/1 42/113/12 13/13/1 
f 9/9/1 11/11/1 42/113/12 12/12/1 
f 38/46/1 39/47/1 26/114/1 25/115/1 
s 32
f 38/46/1 25/115/1 24/116/1 37/45/1 
s 4
f 35/43/1 37/45/1 24/116/1 23/117/1 
s 32
f 35/43/1 23/117/1 43/118/1 46/62/1 
s 4
f 32/119/1 31/120/1 22/24/1 21/23/12 
s 32
f 32/119/1 21/23/12 20/121/1 27/122/1 
f 28/65/12 27/122/1 20/121/1 19/123/12 
s 4
f 28/65/1 19/123/1 45/124/1 48/64/1 
# 54 polygons - 8 triangles

