# 3ds Max Wavefront OBJ Exporter v0.97b - (c)2007 guruware
# File Created: 03.11.2017 13:00:39

mtllib door_back.mtl

#
# object Object016
#

v  0.0000 1.1961 8.1111
v  0.0000 1.3630 8.1111
v  1.3684 0.5269 8.1111
v  1.3028 0.4132 8.1111
v  1.2894 0.0500 8.1111
v  1.3183 0.0000 8.1111
v  0.0000 0.0000 8.1111
v  0.0000 0.0500 8.1111
v  -1.3183 0.0000 8.1111
v  -1.4394 0.3097 8.1111
v  -1.2894 0.0500 8.1111
v  -1.6002 0.5883 8.1111
v  -1.6690 0.6075 8.1111
v  0.0000 1.6156 8.1111
v  0.0000 1.5581 8.1111
v  1.6007 0.5892 8.1111
v  1.6690 0.6075 8.1111
v  1.4500 0.3282 8.1111
v  1.2778 0.0700 8.0611
v  0.0000 0.0700 8.0611
v  -1.2778 0.0700 8.0611
v  -1.4215 0.3189 8.0611
v  -1.5727 0.5806 8.0611
v  0.0000 1.5352 8.0611
v  1.5734 0.5818 8.0611
v  1.4327 0.3382 8.0611
v  1.1912 0.2200 8.1111
v  1.2086 0.1900 8.0611
v  0.0000 0.1900 8.0611
v  0.0000 0.2200 8.1111
v  -1.1912 0.2200 8.1111
v  -1.2086 0.1900 8.0611
v  -1.3168 0.3774 8.0611
v  -1.2900 0.3911 8.1111
v  -1.3663 0.5231 8.1111
v  -1.4075 0.5346 8.0611
v  0.0000 1.3974 8.0611
v  1.4094 0.5379 8.0611
v  1.3288 0.3982 8.0611
v  0.0000 1.1761 8.1111
v  1.2928 0.3959 8.1111
v  -1.4315 0.3362 8.0611
v  -1.4494 0.3271 8.1111
v  1.4227 0.3209 8.0611
v  1.4400 0.3109 8.1111
v  -1.3000 0.4084 8.1111
v  -1.3268 0.3947 8.0611
v  1.3188 0.3809 8.0611
v  0.0000 1.1761 8.1423
v  0.0000 1.1961 8.1423
v  1.3028 0.4132 8.1423
v  1.2928 0.3959 8.1423
v  -1.3792 0.3655 8.1423
v  -1.3692 0.3481 8.1423
v  -1.4394 0.3097 8.1423
v  -1.4494 0.3271 8.1423
v  1.3808 0.3682 8.1423
v  1.4500 0.3282 8.1423
v  1.4400 0.3109 8.1423
v  1.3708 0.3509 8.1423
v  -1.3000 0.4084 8.1423
v  -1.2900 0.3911 8.1423
v  1.3183 0.0000 8.0000
v  0.0000 0.0000 8.0000
v  -1.6690 0.6075 8.0000
v  0.0000 1.6156 8.0000
v  1.6690 0.6075 8.0000
v  -1.3183 0.0000 8.0000
# 68 vertices

vn 0.0000 0.0000 1.0000
vn 0.0000 0.9285 0.3714
vn 0.8041 0.4642 0.3714
vn 0.4790 -0.7891 0.3846
vn 0.4790 -0.7893 0.3842
vn 0.4824 -0.7960 0.3656
vn 0.4824 -0.7959 0.3659
vn -0.4824 -0.7960 0.3656
vn -0.4823 -0.7960 0.3659
vn -0.4795 -0.7920 0.3779
vn -0.4795 -0.7921 0.3778
vn -0.8041 0.4642 0.3714
vn 0.0000 -0.8575 0.5145
vn -0.7426 -0.4287 0.5145
vn -0.4434 0.7214 0.5320
vn -0.4437 0.7218 0.5312
vn -0.4506 0.7352 0.5064
vn -0.4505 0.7349 0.5069
vn 0.4437 0.7276 0.5231
vn 0.4494 0.7357 0.5068
vn 0.4493 0.7354 0.5073
vn 0.4436 0.7275 0.5234
vn 0.7426 -0.4287 0.5145
vn 0.0010 0.0006 1.0000
vn -0.0010 0.0006 1.0000
vn -0.0009 -0.0005 1.0000
vn 0.0009 -0.0005 1.0000
vn 0.5151 0.8571 -0.0000
vn 0.5000 0.8660 -0.0000
vn 0.8660 -0.5000 -0.0000
vn -0.5000 -0.8660 -0.0000
vn -0.5167 -0.8562 -0.0000
vn 0.5198 -0.8543 -0.0000
vn 0.4747 -0.8801 -0.0077
vn 0.4874 -0.8732 -0.0000
vn 0.4779 -0.8784 0.0058
vn -0.8660 -0.5000 -0.0000
vn -0.4779 0.8784 -0.0058
vn -0.4874 0.8732 -0.0000
vn -0.4748 0.8801 0.0077
vn -0.5182 0.8553 -0.0000
# 41 vertex normals

g Object016
usemtl Material__26
s 1
f 4//1 3//1 2//1 1//1 
s 4
f 8//1 7//1 6//1 5//1 
f 11//1 10//1 9//1 
f 15//1 14//1 13//1 12//1 
f 17//1 14//1 15//1 16//1 
f 16//1 18//1 17//1 
s 1
f 20//2 8//2 5//2 19//2 
s 2
f 22//3 10//3 11//3 21//3 
s 1
f 24//7 15//6 12//5 23//4 
s 2
f 25//11 16//10 15//9 24//8 
s 8
f 26//12 18//12 16//12 25//12 
s 2
f 30//13 29//13 28//13 27//13 
s 8
f 34//14 33//14 32//14 31//14 
s 2
f 2//18 37//17 36//16 35//15 
s 8
f 38//22 37//21 2//20 3//19 
s 16
f 4//23 39//23 38//23 3//23 
s 4
f 9//1 7//1 8//1 11//1 
s 1
f 11//2 8//2 20//2 21//2 
s 2
f 32//13 29//13 30//13 31//13 
s 1
f 31//1 30//1 40//1 34//1 
f 40//1 30//1 27//1 41//1 
s 2
f 12//3 43//3 42//3 23//3 
s 8
f 5//12 45//12 44//12 19//12 
f 36//14 47//14 46//14 35//14 
s 16
f 28//23 48//23 41//23 27//23 
s 1
f 2//1 35//1 46//1 1//1 
f 52//1 51//1 50//1 49//1 
s 2
f 56//24 55//24 54//24 53//24 
s 8
f 60//25 59//25 58//25 57//25 
f 53//26 54//26 62//26 61//26 
s 16
f 52//27 60//27 57//27 51//27 
s 1
f 50//1 61//1 62//1 49//1 
s off
f 51//28 4//28 1//28 50//28 
f 57//29 39//29 4//29 51//29 
f 57//29 26//29 39//29 
f 18//29 26//29 57//29 58//29 
f 59//30 45//30 18//30 58//30 
f 60//31 44//31 45//31 59//31 
f 60//31 48//31 44//31 
f 41//31 48//31 60//31 52//31 
f 49//32 40//32 41//32 52//32 
f 62//33 34//33 40//33 49//33 
f 54//34 33//34 34//34 62//34 
f 54//35 22//35 33//35 
f 10//36 22//36 54//36 55//36 
f 56//37 43//37 10//37 55//37 
f 53//38 42//38 43//38 56//38 
f 53//39 47//39 42//39 
f 46//40 47//40 53//40 61//40 
f 50//41 1//41 46//41 61//41 
s 4
f 45//1 5//1 6//1 
f 45//1 6//1 17//1 18//1 
f 43//1 12//1 13//1 
f 13//1 9//1 10//1 43//1 
f 47//1 36//1 23//1 42//1 
s 32
f 23//1 36//1 37//1 24//1 
s 4
f 37//1 38//1 25//1 24//1 
s 32
f 25//1 38//1 39//1 26//1 
s 4
f 48//1 28//1 19//1 44//1 
s 32
f 19//1 28//1 29//1 20//1 
f 29//1 32//1 21//1 20//1 
s 4
f 21//1 32//1 33//1 22//1 
s off
f 64//1 63//1 6//1 7//1 
f 66//1 65//1 13//1 14//1 
f 67//1 66//1 14//1 17//1 
f 68//1 64//1 7//1 9//1 
f 63//1 67//1 17//1 6//1 
f 65//1 68//1 9//1 13//1 
# 60 polygons - 8 triangles

